<svg
    width="13"
    height="15"
    viewBox="0 0 13 15"
    fill="none"
    xmlns="http://www.w3.org/2000/svg"
>
    <path
    d="M6.49309 0C6.75687 0.0725375 6.94306 0.248155 7.13314 0.431408C8.87872 2.15322 10.6243 3.87121 12.3738 5.58921C12.7035 5.91372 12.8005 6.31077 12.56 6.63146C12.335 6.92924 12.0557 7.19649 11.757 7.42555C11.4893 7.63171 11.0937 7.57063 10.8299 7.35302C10.7756 7.31102 10.7252 7.26139 10.6786 7.21176C9.67781 6.22296 8.67701 5.23416 7.67233 4.24536C7.63354 4.20718 7.59475 4.17282 7.53268 4.11937C7.53268 4.20336 7.53268 4.26063 7.53268 4.31789C7.53268 7.55918 7.53268 10.8005 7.53268 14.0417C7.53268 14.664 7.1952 14.9962 6.55904 15C6.36508 15 6.17113 15.0038 5.97718 15C5.51557 14.9885 5.17421 14.6602 5.15093 14.2021C5.14705 14.1448 5.15093 14.0837 5.15093 14.0265C5.15093 10.8043 5.15093 7.58208 5.15093 4.35989C5.15093 4.30262 5.15093 4.24536 5.15093 4.15755C5.09275 4.211 5.05396 4.24154 5.01904 4.2759C4.01049 5.2647 3.00581 6.25732 1.99725 7.24612C1.67529 7.55918 1.25635 7.65844 0.934384 7.42174C0.631816 7.20031 0.360281 6.92543 0.131416 6.63146C-0.0819328 6.35658 -0.0198677 5.97862 0.205118 5.70756C0.247788 5.65411 0.298216 5.60448 0.348644 5.55867C2.08647 3.84449 3.82817 2.13413 5.56599 0.419954C5.74831 0.236701 5.93838 0.0687198 6.1944 0C6.29526 0 6.39224 0 6.49309 0Z"
    fill="#CB2D3E"
    />
</svg>
