<svg
    width="13"
    height="15"
    viewBox="0 0 13 15"
    fill="none"
    xmlns="http://www.w3.org/2000/svg"
>
    <path
        d="M6.19832 15C5.93454 14.9275 5.74834 14.7518 5.55827 14.5686C3.81269 12.8468 2.06711 11.1288 0.317645 9.41079C-0.0120759 9.08628 -0.109052 8.68923 0.13145 8.36854C0.356436 8.07075 0.635729 7.80351 0.934417 7.57445C1.20207 7.36829 1.59774 7.42937 1.86151 7.64698C1.91582 7.68898 1.96625 7.73861 2.0128 7.78824C3.0136 8.77704 4.0144 9.76584 5.01908 10.7546C5.05787 10.7928 5.09666 10.8272 5.15872 10.8806C5.15872 10.7966 5.15872 10.7394 5.15872 10.6821C5.15872 7.44082 5.15873 4.19954 5.15873 0.958259C5.15873 0.335963 5.4962 0.00381693 6.13237 -5.73409e-07C6.32633 -5.56453e-07 6.52028 -0.0038181 6.71423 -5.22541e-07C7.17584 0.0114531 7.5172 0.33978 7.54047 0.797912C7.54435 0.855178 7.54047 0.916263 7.54047 0.973529C7.54047 4.19572 7.54047 7.41792 7.54047 10.6401C7.54047 10.6974 7.54047 10.7546 7.54047 10.8425C7.59866 10.789 7.63745 10.7585 7.67236 10.7241C8.68092 9.7353 9.6856 8.74268 10.6942 7.75388C11.0161 7.44082 11.4351 7.34156 11.757 7.57826C12.0596 7.79969 12.3311 8.07457 12.56 8.36854C12.7733 8.64342 12.7113 9.02138 12.4863 9.29244C12.4436 9.34589 12.3932 9.39552 12.3428 9.44133C10.6049 11.1555 8.86324 12.8659 7.12541 14.58C6.9431 14.7633 6.75302 14.9313 6.497 15C6.39615 15 6.29917 15 6.19832 15Z"
        fill="#CB2D3E"
    />
</svg>
