<svg
    width="13"
    height="13"
    viewBox="0 0 13 13"
    fill="none"
    xmlns="http://www.w3.org/2000/svg"
>
    <path
    d="M13.8477 6.64714C13.7751 6.91092 13.5995 7.09712 13.4162 7.28719C11.6944 9.03277 9.97644 10.7784 8.25845 12.5278C7.93394 12.8575 7.53689 12.9545 7.2162 12.714C6.91841 12.489 6.65117 12.2097 6.4221 11.911C6.21594 11.6434 6.27703 11.2477 6.49464 10.9839C6.53663 10.9296 6.58627 10.8792 6.6359 10.8327C7.6247 9.83186 8.6135 8.83106 9.6023 7.82638C9.64048 7.78759 9.67484 7.7488 9.72829 7.68673C9.6443 7.68673 9.58703 7.68673 9.52976 7.68673C6.28848 7.68673 3.0472 7.68673 -0.194084 7.68673C-0.816381 7.68673 -1.14853 7.34926 -1.15234 6.71309C-1.15234 6.51913 -1.15616 6.32518 -1.15234 6.13123C-1.14089 5.66962 -0.812563 5.32826 -0.354431 5.30499C-0.297165 5.30111 -0.23608 5.30499 -0.178814 5.30499C3.04338 5.30499 6.26557 5.30499 9.48777 5.30499C9.54503 5.30499 9.6023 5.30499 9.69011 5.30499C9.63666 5.2468 9.60612 5.20801 9.57176 5.1731C8.58296 4.16454 7.59034 3.15986 6.60154 2.1513C6.28848 1.82934 6.18922 1.4104 6.42592 1.08844C6.64735 0.785869 6.92223 0.514334 7.2162 0.285469C7.49108 0.0721197 7.86904 0.134185 8.1401 0.359171C8.19355 0.401841 8.24318 0.452269 8.28899 0.502696C10.0032 2.24052 11.7135 3.98222 13.4277 5.72005C13.611 5.90236 13.7789 6.09244 13.8477 6.34846C13.8477 6.44931 13.8477 6.54629 13.8477 6.64714Z"
    fill="#CB2D3E"
    />
</svg>
