<svg width="28" height="28" viewBox="0 0 28 28" fill="none" xmlns="http://www.w3.org/2000/svg">
<g clip-path="url(#clip0_836_3308)">
<path d="M14.0214 28C6.28397 28 0 21.716 0 14.0214C0 6.28397 6.28397 0 14.0214 0C21.7588 0 28.0427 6.28397 28.0427 14.0214C28 21.716 21.716 28 14.0214 28Z" fill="url(#paint0_linear_836_3308)"/>
<path d="M19.3639 8.63509C16.799 6.0702 12.567 6.0702 10.0021 8.63509C8.20668 10.4305 7.65096 13.0381 8.37767 15.3038L6.92424 15.774C6.7105 15.8595 6.625 16.0733 6.7105 16.2443C6.88149 16.6717 7.43721 17.3557 8.12118 18.1252C8.16393 18.1679 8.16393 18.1679 8.20668 18.2107C8.54867 18.5526 9.06164 18.6381 9.48912 18.4672C9.57462 18.4244 9.66012 18.5099 9.61737 18.5954C9.44638 18.9801 9.53187 19.4931 9.83111 19.8351L9.87386 19.8778C9.9166 19.9206 9.95935 19.9633 10.0021 20.0061C10.7288 20.6473 11.37 21.1175 11.7548 21.2885C11.9685 21.374 12.1823 21.2458 12.225 21.0748L12.6952 19.6214C14.9609 20.3481 17.5685 19.7923 19.3639 17.9969C21.9716 15.432 21.9716 11.2 19.3639 8.63509ZM10.6861 16.116L10.7288 16.0733C11.0708 15.774 11.5838 15.8168 11.883 16.116C12.1823 16.4152 12.225 16.9282 11.9258 17.2702L11.883 17.313C11.541 17.6549 10.9853 17.6549 10.6433 17.313C10.3441 16.971 10.3441 16.458 10.6861 16.116ZM18.0815 16.7145C16.7563 18.0397 14.9181 18.4244 13.251 17.9114L14.6189 13.8504C14.7044 13.5511 14.4479 13.2946 14.1487 13.3801L10.0876 14.7481C9.57462 13.0809 9.95935 11.2427 11.2845 9.91753C13.1655 8.03662 16.2006 8.03662 18.0815 9.91753C19.9624 11.7984 19.9624 14.8336 18.0815 16.7145Z" fill="white"/>
<path d="M7.82217 21.3313H6.66797V20.1771C6.66797 19.5359 7.18095 19.0229 7.82217 19.0229C8.46339 19.0229 8.97637 19.5359 8.97637 20.1771C8.97637 20.8183 8.46339 21.3313 7.82217 21.3313Z" fill="white"/>
</g>
<defs>
<linearGradient id="paint0_linear_836_3308" x1="2.71856" y1="2.82757" x2="23.5978" y2="23.5051" gradientUnits="userSpaceOnUse">
<stop offset="0.3827" stop-color="#6A0B04"/>
<stop offset="0.8792" stop-color="#2E2223"/>
</linearGradient>
<clipPath id="clip0_836_3308">
<rect width="28" height="28" fill="white"/>
</clipPath>
</defs>
</svg>
