<svg width="120" height="120" viewBox="0 0 120 120" fill="none" xmlns="http://www.w3.org/2000/svg">
<path d="M104.097 15.9044C82.8911 -5.30146 48.4628 -5.30146 27.257 15.9044C12.4753 30.6861 8.04703 51.9543 13.9098 70.6653L28.0055 65.9875C23.8267 52.3909 27.0699 37.0478 37.7976 26.3825C53.203 10.9771 78.2134 10.9771 93.6188 26.3825C109.024 41.7879 109.024 66.7983 93.6188 82.2038C82.9535 92.869 67.6104 96.1747 54.0761 91.9959L49.3984 106.091C68.1094 111.954 89.3776 107.526 104.159 92.6819C125.303 71.5385 125.303 37.0478 104.097 15.9044Z" fill="url(#paint0_linear_858_3469)"/>
<path d="M61.25 54.8232L27.9444 65.925L13.8488 70.6028L2.06085 74.5321C0.376863 75.0934 -0.496317 76.9022 0.127383 78.5238C1.43715 81.9541 5.9278 87.7546 11.5411 93.9916C11.7282 94.241 11.9777 94.4905 12.2272 94.74C12.2272 94.74 12.2272 94.74 12.2895 94.8024C15.0962 97.609 19.275 98.2951 22.7677 96.7982C23.3914 96.5487 24.0151 97.1724 23.7656 97.7961C22.3311 101.102 22.8924 105.031 25.4496 107.838C25.5744 107.962 25.6991 108.087 25.8238 108.274C26.1981 108.649 26.5723 108.96 27.0089 109.272C32.8717 114.511 38.2355 118.565 41.4164 119.75C43.038 120.374 44.9091 119.501 45.408 117.817L49.3373 106.029L54.0151 91.9334L65.117 58.6277C65.9278 56.3201 63.6825 54.0747 61.25 54.8232ZM42.7261 87.1932C39.9818 89.9375 35.4912 89.9375 32.7469 87.1932C30.0026 84.449 30.0026 79.9583 32.7469 77.214C32.8717 77.0893 33.0588 76.9022 33.2459 76.7774C35.9902 74.4697 40.169 74.5945 42.7261 77.214C45.3457 79.8336 45.4704 83.95 43.1627 86.6943C43.038 86.8814 42.9132 87.0685 42.7261 87.1932Z" fill="url(#paint1_linear_858_3469)"/>
<path d="M32.7469 77.2142C32.8717 77.0894 33.0588 76.9023 33.2459 76.7776C35.9902 74.4699 40.169 74.5946 42.7261 77.2142L64.3686 55.5718C63.6201 54.8233 62.4351 54.4491 61.25 54.8233L27.9444 65.9252L13.8488 70.6029L2.06086 74.5323C0.376864 75.0936 -0.496317 76.9023 0.127383 78.5239C1.43715 81.9543 5.9278 87.7547 11.5411 93.9917C11.7282 94.2412 11.9777 94.4907 12.2272 94.7402C12.2272 94.7402 12.2272 94.7402 12.2895 94.8025C15.0962 97.6092 19.275 98.2952 22.7677 96.7984C22.8925 96.736 23.0796 96.736 23.2043 96.736L32.7469 87.1934C30.0026 84.4491 30.0026 80.0208 32.7469 77.2142Z" fill="url(#paint2_linear_858_3469)"/>
<path d="M32.7469 77.2142C32.8717 77.0894 33.0588 76.9023 33.2459 76.7776C35.9902 74.4699 40.169 74.5946 42.7261 77.2142L64.3686 55.5718C63.6201 54.8233 62.4351 54.4491 61.25 54.8233L27.9444 65.9252L13.8488 70.6029L2.06086 74.5323C0.376864 75.0936 -0.496317 76.9023 0.127383 78.5239C1.43715 81.9543 5.9278 87.7547 11.5411 93.9917C11.7282 94.2412 11.9777 94.4907 12.2272 94.7402C12.2272 94.7402 12.2272 94.7402 12.2895 94.8025C15.0962 97.6092 19.275 98.2952 22.7677 96.7984C22.8925 96.736 23.0796 96.736 23.2043 96.736L32.7469 87.1934C30.0026 84.4491 30.0026 80.0208 32.7469 77.2142Z" fill="url(#paint3_linear_858_3469)"/>
<path d="M27.257 15.9044C12.4753 30.6861 8.04703 51.9543 13.9098 70.6653L28.0055 65.9875C23.8267 52.3908 27.0699 37.0478 37.7976 26.3825C53.203 10.9771 78.2133 10.9771 93.5564 26.3202L104.035 15.842C82.8911 -5.30146 48.4628 -5.30146 27.257 15.9044Z" fill="url(#paint4_linear_858_3469)"/>
<path d="M15.7796 103.721L0 120H9.41788C14.5946 120 18.8358 115.821 18.8358 110.582C18.7734 107.838 17.5884 105.405 15.7796 103.721Z" fill="url(#paint5_linear_858_3469)"/>
<path d="M9.41788 101.227C4.1788 101.227 0 105.405 0 110.582L0 120L15.7796 103.721C14.0956 102.162 11.8503 101.227 9.41788 101.227Z" fill="url(#paint6_linear_858_3469)"/>
<path d="M9.41788 101.227C4.1788 101.227 0 105.405 0 110.582L0 120L15.7796 103.721C14.0956 102.162 11.8503 101.227 9.41788 101.227Z" fill="url(#paint7_linear_858_3469)"/>
<defs>
<linearGradient id="paint0_linear_858_3469" x1="107.455" y1="12.5316" x2="1.36793" y2="118.618" gradientUnits="userSpaceOnUse">
<stop stop-color="#EF473A"/>
<stop offset="0.7414" stop-color="#CB2D3E"/>
</linearGradient>
<linearGradient id="paint1_linear_858_3469" x1="149.915" y1="-31.4232" x2="-91.903" y2="213.24" gradientUnits="userSpaceOnUse">
<stop offset="0.3827" stop-color="#EF473A"/>
<stop offset="0.8792" stop-color="#CB2D3E"/>
</linearGradient>
<linearGradient id="paint2_linear_858_3469" x1="-7.92727" y1="30.2494" x2="73.8629" y2="109.672" gradientUnits="userSpaceOnUse">
<stop offset="0.3827" stop-color="#EF473A"/>
<stop offset="0.8792" stop-color="#CB2D3E"/>
</linearGradient>
<linearGradient id="paint3_linear_858_3469" x1="28.6276" y1="64.5075" x2="56.4421" y2="95.0821" gradientUnits="userSpaceOnUse">
<stop stop-color="#EF473A"/>
<stop offset="0.7414" stop-color="#CB2D3E"/>
</linearGradient>
<linearGradient id="paint4_linear_858_3469" x1="34.0109" y1="5.39563" x2="85.8179" y2="83.9554" gradientUnits="userSpaceOnUse">
<stop stop-color="#EF473A"/>
<stop offset="0.7414" stop-color="#CB2D3E"/>
</linearGradient>
<linearGradient id="paint5_linear_858_3469" x1="-0.133535" y1="126.02" x2="19.73" y2="106.752" gradientUnits="userSpaceOnUse">
<stop offset="0.4193" stop-color="#EF473A"/>
<stop offset="1" stop-color="#CB2D3E"/>
</linearGradient>
<linearGradient id="paint6_linear_858_3469" x1="-3.64198" y1="98.1861" x2="10.6597" y2="115.136" gradientUnits="userSpaceOnUse">
<stop offset="0.4413" stop-color="#EF473A"/>
<stop offset="1" stop-color="#CB2D3E"/>
</linearGradient>
<linearGradient id="paint7_linear_858_3469" x1="-8.10643" y1="99.6129" x2="18.8056" y2="120.155" gradientUnits="userSpaceOnUse">
<stop stop-color="#EF473A"/>
<stop offset="0.7414" stop-color="#CB2D3E"/>
</linearGradient>
</defs>
</svg>
