<svg width="506" height="506" viewBox="0 0 506 506" fill="none" xmlns="http://www.w3.org/2000/svg">
<mask id="mask0_858_3456" style="mask-type:alpha" maskUnits="userSpaceOnUse" x="0" y="0" width="506" height="506">
<path d="M0 10C0 4.47717 4.47715 0 10 0H495C501.075 0 506 4.92487 506 11V506H0V10Z" fill="url(#paint0_linear_858_3456)"/>
</mask>
<g mask="url(#mask0_858_3456)">
<g filter="url(#filter0_d_858_3456)">
<path d="M606.325 645.448C532.765 708.446 422.064 699.884 359.067 626.325C296.069 552.766 304.631 442.065 378.19 379.067C451.749 316.07 562.45 324.631 625.448 398.191C688.446 471.75 679.884 582.451 606.325 645.448Z" fill="url(#paint1_linear_858_3456)"/>
</g>
<g filter="url(#filter1_d_858_3456)">
<path d="M633.92 55.0057C572.048 107.995 478.934 100.793 425.945 38.9205C372.956 -22.9522 380.158 -116.066 442.03 -169.055C503.903 -222.044 597.017 -214.842 650.006 -152.97C702.995 -91.097 695.793 2.01671 633.92 55.0057Z" fill="url(#paint2_linear_858_3456)"/>
</g>
<g filter="url(#filter2_d_858_3456)">
<path d="M75.3794 166.843C23.5923 211.195 -54.3434 205.167 -98.6949 153.38C-143.046 101.593 -137.019 23.657 -85.2316 -20.6945C-33.4446 -65.046 44.4911 -59.0183 88.8426 -7.23125C133.194 44.5558 127.166 122.492 75.3794 166.843Z" fill="url(#paint3_linear_858_3456)"/>
</g>
<g filter="url(#filter3_d_858_3456)">
<path d="M91.875 412.659C134.708 441.19 146.303 499.042 117.772 541.875C89.2417 584.708 31.3898 596.303 -11.4435 567.772C-54.2768 539.242 -65.8714 481.39 -37.3408 438.557C-8.81017 395.723 49.0417 384.129 91.875 412.659Z" fill="url(#paint4_linear_858_3456)"/>
</g>
<g filter="url(#filter4_d_858_3456)">
<path d="M94.7141 346.63C90.0456 343.521 83.7402 344.785 80.6306 349.453C77.521 354.122 78.7847 360.427 83.4532 363.537C88.1217 366.646 94.4271 365.382 97.5367 360.714C100.646 356.045 99.3826 349.74 94.7141 346.63Z" fill="url(#paint5_linear_858_3456)"/>
</g>
<g filter="url(#filter5_d_858_3456)">
<path d="M535.108 187.878C514.48 174.138 486.619 179.722 472.879 200.35C459.139 220.978 464.723 248.839 485.351 262.578C505.979 276.318 533.84 270.735 547.58 250.107C561.319 229.479 555.736 201.618 535.108 187.878Z" fill="url(#paint6_linear_858_3456)"/>
</g>
<g filter="url(#filter6_d_858_3456)">
<path d="M471.067 127.446C466.552 124.438 460.453 125.66 457.446 130.176C454.438 134.691 455.66 140.79 460.176 143.797C464.691 146.805 470.79 145.583 473.797 141.067C476.805 136.552 475.583 130.453 471.067 127.446Z" fill="url(#paint7_linear_858_3456)"/>
</g>
<g filter="url(#filter7_d_858_3456)">
<path d="M394.636 73.3204C385.249 67.0683 372.572 69.6091 366.32 78.9954C360.068 88.3818 362.608 101.059 371.995 107.311C381.381 113.564 394.059 111.023 400.311 101.636C406.563 92.25 404.022 79.5725 394.636 73.3204Z" fill="url(#paint8_linear_858_3456)"/>
</g>
<g filter="url(#filter8_d_858_3456)">
<path d="M276.007 -95.4404C245.694 -115.632 204.752 -107.426 184.56 -77.1127C164.369 -46.7993 172.575 -5.8571 202.888 14.3342C233.202 34.5255 274.144 26.3199 294.335 -3.99349C314.526 -34.3069 306.321 -75.2491 276.007 -95.4404Z" fill="url(#paint9_linear_858_3456)"/>
</g>
<g filter="url(#filter9_d_858_3456)">
<path d="M21.5409 275.292C10.5195 267.951 -4.36633 270.935 -11.7075 281.956C-19.0487 292.977 -16.0653 307.863 -5.04391 315.204C5.9775 322.546 20.8633 319.562 28.2045 308.541C35.5457 297.519 32.5623 282.634 21.5409 275.292Z" fill="url(#paint10_linear_858_3456)"/>
</g>
</g>
<defs>
<filter id="filter0_d_858_3456" x="312.895" y="336.895" width="358.727" height="358.726" filterUnits="userSpaceOnUse" color-interpolation-filters="sRGB">
<feFlood flood-opacity="0" result="BackgroundImageFix"/>
<feColorMatrix in="SourceAlpha" type="matrix" values="0 0 0 0 0 0 0 0 0 0 0 0 0 0 0 0 0 0 127 0" result="hardAlpha"/>
<feOffset dy="4"/>
<feGaussianBlur stdDeviation="2"/>
<feComposite in2="hardAlpha" operator="out"/>
<feColorMatrix type="matrix" values="0 0 0 0 0 0 0 0 0 0 0 0 0 0 0 0 0 0 0.15 0"/>
<feBlend mode="normal" in2="BackgroundImageFix" result="effect1_dropShadow_858_3456"/>
<feBlend mode="normal" in="SourceGraphic" in2="effect1_dropShadow_858_3456" result="shape"/>
</filter>
<filter id="filter1_d_858_3456" x="386.473" y="-204.527" width="303.006" height="303.005" filterUnits="userSpaceOnUse" color-interpolation-filters="sRGB">
<feFlood flood-opacity="0" result="BackgroundImageFix"/>
<feColorMatrix in="SourceAlpha" type="matrix" values="0 0 0 0 0 0 0 0 0 0 0 0 0 0 0 0 0 0 127 0" result="hardAlpha"/>
<feOffset dy="4"/>
<feGaussianBlur stdDeviation="2"/>
<feComposite in2="hardAlpha" operator="out"/>
<feColorMatrix type="matrix" values="0 0 0 0 0 0 0 0 0 0 0 0 0 0 0 0 0 0 0.15 0"/>
<feBlend mode="normal" in2="BackgroundImageFix" result="effect1_dropShadow_858_3456"/>
<feBlend mode="normal" in="SourceGraphic" in2="effect1_dropShadow_858_3456" result="shape"/>
</filter>
<filter id="filter2_d_858_3456" x="-132.385" y="-50.3846" width="254.918" height="254.918" filterUnits="userSpaceOnUse" color-interpolation-filters="sRGB">
<feFlood flood-opacity="0" result="BackgroundImageFix"/>
<feColorMatrix in="SourceAlpha" type="matrix" values="0 0 0 0 0 0 0 0 0 0 0 0 0 0 0 0 0 0 127 0" result="hardAlpha"/>
<feOffset dy="4"/>
<feGaussianBlur stdDeviation="2"/>
<feComposite in2="hardAlpha" operator="out"/>
<feColorMatrix type="matrix" values="0 0 0 0 0 0 0 0 0 0 0 0 0 0 0 0 0 0 0.15 0"/>
<feBlend mode="normal" in2="BackgroundImageFix" result="effect1_dropShadow_858_3456"/>
<feBlend mode="normal" in="SourceGraphic" in2="effect1_dropShadow_858_3456" result="shape"/>
</filter>
<filter id="filter3_d_858_3456" x="-56.9805" y="397.02" width="194.393" height="194.393" filterUnits="userSpaceOnUse" color-interpolation-filters="sRGB">
<feFlood flood-opacity="0" result="BackgroundImageFix"/>
<feColorMatrix in="SourceAlpha" type="matrix" values="0 0 0 0 0 0 0 0 0 0 0 0 0 0 0 0 0 0 127 0" result="hardAlpha"/>
<feOffset dy="4"/>
<feGaussianBlur stdDeviation="2"/>
<feComposite in2="hardAlpha" operator="out"/>
<feColorMatrix type="matrix" values="0 0 0 0 0 0 0 0 0 0 0 0 0 0 0 0 0 0 0.15 0"/>
<feBlend mode="normal" in2="BackgroundImageFix" result="effect1_dropShadow_858_3456"/>
<feBlend mode="normal" in="SourceGraphic" in2="effect1_dropShadow_858_3456" result="shape"/>
</filter>
<filter id="filter4_d_858_3456" x="74.9258" y="344.926" width="28.3164" height="28.3154" filterUnits="userSpaceOnUse" color-interpolation-filters="sRGB">
<feFlood flood-opacity="0" result="BackgroundImageFix"/>
<feColorMatrix in="SourceAlpha" type="matrix" values="0 0 0 0 0 0 0 0 0 0 0 0 0 0 0 0 0 0 127 0" result="hardAlpha"/>
<feOffset dy="4"/>
<feGaussianBlur stdDeviation="2"/>
<feComposite in2="hardAlpha" operator="out"/>
<feColorMatrix type="matrix" values="0 0 0 0 0 0 0 0 0 0 0 0 0 0 0 0 0 0 0.15 0"/>
<feBlend mode="normal" in2="BackgroundImageFix" result="effect1_dropShadow_858_3456"/>
<feBlend mode="normal" in="SourceGraphic" in2="effect1_dropShadow_858_3456" result="shape"/>
</filter>
<filter id="filter5_d_858_3456" x="461.348" y="180.346" width="97.7637" height="97.7639" filterUnits="userSpaceOnUse" color-interpolation-filters="sRGB">
<feFlood flood-opacity="0" result="BackgroundImageFix"/>
<feColorMatrix in="SourceAlpha" type="matrix" values="0 0 0 0 0 0 0 0 0 0 0 0 0 0 0 0 0 0 127 0" result="hardAlpha"/>
<feOffset dy="4"/>
<feGaussianBlur stdDeviation="2"/>
<feComposite in2="hardAlpha" operator="out"/>
<feColorMatrix type="matrix" values="0 0 0 0 0 0 0 0 0 0 0 0 0 0 0 0 0 0 0.15 0"/>
<feBlend mode="normal" in2="BackgroundImageFix" result="effect1_dropShadow_858_3456"/>
<feBlend mode="normal" in="SourceGraphic" in2="effect1_dropShadow_858_3456" result="shape"/>
</filter>
<filter id="filter6_d_858_3456" x="451.797" y="125.797" width="27.6484" height="27.6489" filterUnits="userSpaceOnUse" color-interpolation-filters="sRGB">
<feFlood flood-opacity="0" result="BackgroundImageFix"/>
<feColorMatrix in="SourceAlpha" type="matrix" values="0 0 0 0 0 0 0 0 0 0 0 0 0 0 0 0 0 0 127 0" result="hardAlpha"/>
<feOffset dy="4"/>
<feGaussianBlur stdDeviation="2"/>
<feComposite in2="hardAlpha" operator="out"/>
<feColorMatrix type="matrix" values="0 0 0 0 0 0 0 0 0 0 0 0 0 0 0 0 0 0 0.15 0"/>
<feBlend mode="normal" in2="BackgroundImageFix" result="effect1_dropShadow_858_3456"/>
<feBlend mode="normal" in="SourceGraphic" in2="effect1_dropShadow_858_3456" result="shape"/>
</filter>
<filter id="filter7_d_858_3456" x="358.893" y="69.8931" width="48.8457" height="48.8455" filterUnits="userSpaceOnUse" color-interpolation-filters="sRGB">
<feFlood flood-opacity="0" result="BackgroundImageFix"/>
<feColorMatrix in="SourceAlpha" type="matrix" values="0 0 0 0 0 0 0 0 0 0 0 0 0 0 0 0 0 0 127 0" result="hardAlpha"/>
<feOffset dy="4"/>
<feGaussianBlur stdDeviation="2"/>
<feComposite in2="hardAlpha" operator="out"/>
<feColorMatrix type="matrix" values="0 0 0 0 0 0 0 0 0 0 0 0 0 0 0 0 0 0 0.15 0"/>
<feBlend mode="normal" in2="BackgroundImageFix" result="effect1_dropShadow_858_3456"/>
<feBlend mode="normal" in="SourceGraphic" in2="effect1_dropShadow_858_3456" result="shape"/>
</filter>
<filter id="filter8_d_858_3456" x="169.492" y="-106.509" width="139.912" height="139.911" filterUnits="userSpaceOnUse" color-interpolation-filters="sRGB">
<feFlood flood-opacity="0" result="BackgroundImageFix"/>
<feColorMatrix in="SourceAlpha" type="matrix" values="0 0 0 0 0 0 0 0 0 0 0 0 0 0 0 0 0 0 127 0" result="hardAlpha"/>
<feOffset dy="4"/>
<feGaussianBlur stdDeviation="2"/>
<feComposite in2="hardAlpha" operator="out"/>
<feColorMatrix type="matrix" values="0 0 0 0 0 0 0 0 0 0 0 0 0 0 0 0 0 0 0.25 0"/>
<feBlend mode="normal" in2="BackgroundImageFix" result="effect1_dropShadow_858_3456"/>
<feBlend mode="normal" in="SourceGraphic" in2="effect1_dropShadow_858_3456" result="shape"/>
</filter>
<filter id="filter9_d_858_3456" x="-19.7324" y="271.268" width="55.9609" height="55.9607" filterUnits="userSpaceOnUse" color-interpolation-filters="sRGB">
<feFlood flood-opacity="0" result="BackgroundImageFix"/>
<feColorMatrix in="SourceAlpha" type="matrix" values="0 0 0 0 0 0 0 0 0 0 0 0 0 0 0 0 0 0 127 0" result="hardAlpha"/>
<feOffset dy="4"/>
<feGaussianBlur stdDeviation="2"/>
<feComposite in2="hardAlpha" operator="out"/>
<feColorMatrix type="matrix" values="0 0 0 0 0 0 0 0 0 0 0 0 0 0 0 0 0 0 0.15 0"/>
<feBlend mode="normal" in2="BackgroundImageFix" result="effect1_dropShadow_858_3456"/>
<feBlend mode="normal" in="SourceGraphic" in2="effect1_dropShadow_858_3456" result="shape"/>
</filter>
<linearGradient id="paint0_linear_858_3456" x1="-20.2397" y1="-329.912" x2="-146.414" y2="-209.372" gradientUnits="userSpaceOnUse">
<stop stop-color="#E9433B"/>
<stop offset="1" stop-color="#CB2D3E"/>
</linearGradient>
<linearGradient id="paint1_linear_858_3456" x1="625.448" y1="398.191" x2="359.067" y2="626.325" gradientUnits="userSpaceOnUse">
<stop stop-color="#CB2D3E"/>
<stop offset="1" stop-color="#EF473A"/>
</linearGradient>
<linearGradient id="paint2_linear_858_3456" x1="650.006" y1="-152.97" x2="425.945" y2="38.9205" gradientUnits="userSpaceOnUse">
<stop stop-color="#CB2D3E"/>
<stop offset="1" stop-color="#EF473A"/>
</linearGradient>
<linearGradient id="paint3_linear_858_3456" x1="88.8426" y1="-7.23125" x2="-98.6949" y2="153.38" gradientUnits="userSpaceOnUse">
<stop stop-color="#CB2D3E"/>
<stop offset="1" stop-color="#EF473A"/>
</linearGradient>
<linearGradient id="paint4_linear_858_3456" x1="-37.3408" y1="438.557" x2="117.772" y2="541.875" gradientUnits="userSpaceOnUse">
<stop stop-color="#CB2D3E"/>
<stop offset="1" stop-color="#EF473A"/>
</linearGradient>
<linearGradient id="paint5_linear_858_3456" x1="97.5367" y1="360.714" x2="80.6306" y2="349.453" gradientUnits="userSpaceOnUse">
<stop stop-color="#CB2D3E"/>
<stop offset="1" stop-color="#EF473A"/>
</linearGradient>
<linearGradient id="paint6_linear_858_3456" x1="547.58" y1="250.107" x2="472.879" y2="200.35" gradientUnits="userSpaceOnUse">
<stop stop-color="#CB2D3E"/>
<stop offset="1" stop-color="#EF473A"/>
</linearGradient>
<linearGradient id="paint7_linear_858_3456" x1="473.797" y1="141.067" x2="457.446" y2="130.176" gradientUnits="userSpaceOnUse">
<stop stop-color="#CB2D3E"/>
<stop offset="1" stop-color="#EF473A"/>
</linearGradient>
<linearGradient id="paint8_linear_858_3456" x1="400.311" y1="101.636" x2="366.32" y2="78.9954" gradientUnits="userSpaceOnUse">
<stop stop-color="#CB2D3E"/>
<stop offset="1" stop-color="#EF473A"/>
</linearGradient>
<linearGradient id="paint9_linear_858_3456" x1="294.335" y1="-3.99349" x2="184.56" y2="-77.1127" gradientUnits="userSpaceOnUse">
<stop stop-color="#CB2D3E"/>
<stop offset="1" stop-color="#EF473A"/>
</linearGradient>
<linearGradient id="paint10_linear_858_3456" x1="28.2045" y1="308.541" x2="-11.7075" y2="281.956" gradientUnits="userSpaceOnUse">
<stop stop-color="#CB2D3E"/>
<stop offset="1" stop-color="#EF473A"/>
</linearGradient>
</defs>
</svg>
